<?xml version="1.0" encoding="utf-8"?>
<!-- Generator: Adobe Illustrator 22.1.0, SVG Export Plug-In . SVG Version: 6.00 Build 0)  -->
<svg version="1.1" id="Ebene_1" xmlns="http://www.w3.org/2000/svg" xmlns:xlink="http://www.w3.org/1999/xlink" x="0px" y="0px"
	 viewBox="0 0 100 125" style="enable-background:new 0 0 100 125;" xml:space="preserve">
<path d="M84.3,56.3c-0.4-2.2-1-4.4-1.8-6.5c1.6-0.4,3.5-0.8,5.4-0.9c4.6-0.2,6,6.7,6,6.7c3.2-0.7,3.7-4.2,3.7-4.2
	c-3.8-7.7-10.6-6.7-16.2-4.1c-0.9-1.9-2-3.7-3.3-5.4c5.2-4.1,3.8-10.8,1.5-16.2c4.7-1,8.3-5.4,8.3-10.6c0-5.1-6.9-9.8-6.9-9.8
	c-0.6-0.4-1.2-0.2-1.3,0.6l-1.9,14.3c-0.1,0.8-0.3,0.8-0.4,0L75.1,6c-0.1-0.7-0.7-1-1.3-0.6c0,0-6.6,4.6-6.6,9.7
	c0,5.8,4.4,10.5,9.9,10.8c0.5,1.9,1.2,5.1,1,8.2c-0.1,2.1-1.5,3.4-3.1,4.2c-5.4-5.5-12.5-9.2-20.6-10.1v-5.9
	c1.5-0.3,2.6-1.5,2.6-3.1c0-1.8-1.4-3.1-3.1-3.1c-1.8,0-3.1,1.4-3.1,3.1c0,1.4,0.8,2.5,2,2.9V28c-0.8-0.1-1.6-0.1-2.5-0.1
	c-1,0-1.9,0-2.9,0.1v-7c0.7-0.3,1.1-1,1.1-1.8c0-1.1-0.9-2-2-2s-2,0.9-2,2c0,0.9,0.5,1.6,1.3,1.9v7.1c-7.7,1-14.5,4.5-19.7,9.7
	c-1.3-0.8-2.3-2-2.4-3.8c-0.1-3.1,0.6-6.3,1-8.2c6.1-0.2,10.9-5.5,10.9-11.9c0-5.5-7.3-10.7-7.3-10.7c-0.6-0.4-1.2-0.2-1.3,0.6
	l-2.5,15.9c-0.1,0.7-0.3,0.7-0.4,0l-2.2-16c-0.1-0.8-0.7-1-1.3-0.6c0,0-7.7,5.2-7.7,10.8c0,5.8,4,10.7,9.3,11.7
	c-2.2,5.1-3.6,11.4,0.8,15.5c-1.5,1.9-2.8,4-3.9,6.2c-5.7-2.7-12.6-3.9-16.6,3.9c0,0,0.5,3.5,3.7,4.2c0,0,1.4-6.9,6-6.7
	c2.1,0.1,4.1,0.6,5.8,1.1C17,52,16.4,54.1,16,56.3c-5.7-0.7-11.5,0.6-13.1,8.3c0,0,1.3,3.2,4.6,3.1c0,0-0.5-7,4.1-8
	c1.3-0.3,2.7-0.4,4-0.5c-0.1,1.1-0.2,2.1-0.2,3.2c0,1.3,0.1,2.5,0.2,3.8c-5,1.1-9.2,4-8.8,11.1c0,0,2.1,2.8,5.3,1.8
	c0,0-2.3-6.7,1.8-8.8c0.7-0.4,1.4-0.7,2.2-0.9c0.5,2.4,1.2,4.7,2.2,6.9c-3.8,2.4-6.3,6.2-4.3,12.3c0,0,2.8,2.1,5.5,0.3
	c0,0-3.9-5.9-0.5-9c0.2-0.2,0.5-0.4,0.8-0.6C25.9,89.8,37.2,97,50.2,97c12.9,0,24.1-7.1,30.1-17.5c0.1,0.1,0.3,0.2,0.4,0.4
	c3.4,3.1-0.5,9-0.5,9c2.8,1.8,5.5-0.3,5.5-0.3c2-5.9-0.3-9.6-4-12c1-2.2,1.8-4.6,2.3-7c0.6,0.2,1.2,0.5,1.7,0.8
	c4.1,2.1,1.8,8.8,1.8,8.8c3.1,1,5.3-1.7,5.3-1.7c0.4-6.9-3.6-9.8-8.3-11c0.1-1.3,0.2-2.6,0.2-3.9c0-1.1-0.1-2.1-0.2-3.2
	c1.2,0.1,2.4,0.2,3.6,0.5c4.5,1,4.1,8,4.1,8c3.3,0.2,4.6-3.1,4.6-3.1C95.4,57.1,89.8,55.7,84.3,56.3z"/>
</svg>
